<svg xmlns="http://www.w3.org/2000/svg" version="1.1" xmlns:xlink="http://www.w3.org/1999/xlink" xmlns:svgjs="http://svgjs.dev/svgjs" width="1440" height="560" preserveAspectRatio="none" viewBox="0 0 1440 560"><g mask="url(&quot;#SvgjsMask1021&quot;)" fill="none"><rect width="1440" height="560" x="0" y="0" fill="url(&quot;#SvgjsLinearGradient1022&quot;)"></rect><path d="M-73.61 509.74L-73.61 509.74" stroke="rgba(255, 0, 0, 0.62)" stroke-width="1.5"></path><path d="M-73.61 509.74L-70.92 639.58" stroke="rgba(255, 0, 0, 0.62)" stroke-width="1.5"></path><path d="M-73.61 509.74L83.8 549.23" stroke="rgba(255, 0, 0, 0.62)" stroke-width="1.5"></path><path d="M-73.61 509.74L40.55 338.27" stroke="rgba(255, 0, 0, 0.62)" stroke-width="1.5"></path><path d="M-73.61 509.74L101.77 698.35" stroke="rgba(255, 0, 0, 0.62)" stroke-width="1.5"></path><path d="M-73.61 509.74L187.88 525.47" stroke="rgba(255, 0, 0, 0.62)" stroke-width="1.5"></path><path d="M-70.92 639.58L-70.92 639.58" stroke="rgba(255, 0, 0, 0.62)" stroke-width="1.5"></path><path d="M-70.92 639.58L83.8 549.23" stroke="rgba(255, 0, 0, 0.62)" stroke-width="1.5"></path><path d="M-70.92 639.58L101.77 698.35" stroke="rgba(255, 0, 0, 0.62)" stroke-width="1.5"></path><path d="M40.55 338.27L40.55 338.27" stroke="rgba(255, 0, 0, 0.62)" stroke-width="1.5"></path><path d="M40.55 338.27L83.8 549.23" stroke="rgba(255, 0, 0, 0.62)" stroke-width="1.5"></path><path d="M40.55 338.27L187.88 525.47" stroke="rgba(255, 0, 0, 0.62)" stroke-width="1.5"></path><path d="M40.55 338.27L-70.92 639.58" stroke="rgba(255, 0, 0, 0.62)" stroke-width="1.5"></path><path d="M40.55 338.27L101.77 698.35" stroke="rgba(255, 0, 0, 0.62)" stroke-width="1.5"></path><path d="M40.55 338.27L248.39 705.84" stroke="rgba(255, 0, 0, 0.62)" stroke-width="1.5"></path><path d="M83.8 549.23L83.8 549.23" stroke="rgba(255, 0, 0, 0.62)" stroke-width="1.5"></path><path d="M83.8 549.23L187.88 525.47" stroke="rgba(255, 0, 0, 0.62)" stroke-width="1.5"></path><path d="M83.8 549.23L101.77 698.35" stroke="rgba(255, 0, 0, 0.62)" stroke-width="1.5"></path><path d="M101.77 698.35L101.77 698.35" stroke="rgba(255, 0, 0, 0.62)" stroke-width="1.5"></path><path d="M101.77 698.35L248.39 705.84" stroke="rgba(255, 0, 0, 0.62)" stroke-width="1.5"></path><path d="M187.88 525.47L187.88 525.47" stroke="rgba(255, 0, 0, 0.62)" stroke-width="1.5"></path><path d="M248.39 705.84L248.39 705.84" stroke="rgba(255, 0, 0, 0.62)" stroke-width="1.5"></path><path d="M248.39 705.84L362.42 657.39" stroke="rgba(255, 0, 0, 0.62)" stroke-width="1.5"></path><path d="M248.39 705.84L187.88 525.47" stroke="rgba(255, 0, 0, 0.62)" stroke-width="1.5"></path><path d="M248.39 705.84L83.8 549.23" stroke="rgba(255, 0, 0, 0.62)" stroke-width="1.5"></path><path d="M248.39 705.84L508.12 542.58" stroke="rgba(255, 0, 0, 0.62)" stroke-width="1.5"></path><path d="M362.42 657.39L362.42 657.39" stroke="rgba(255, 0, 0, 0.62)" stroke-width="1.5"></path><path d="M362.42 657.39L508.12 542.58" stroke="rgba(255, 0, 0, 0.62)" stroke-width="1.5"></path><path d="M362.42 657.39L187.88 525.47" stroke="rgba(255, 0, 0, 0.62)" stroke-width="1.5"></path><path d="M362.42 657.39L101.77 698.35" stroke="rgba(255, 0, 0, 0.62)" stroke-width="1.5"></path><path d="M503.51 397.23L503.51 397.23" stroke="rgba(255, 0, 0, 0.62)" stroke-width="1.5"></path><path d="M503.51 397.23L508.12 542.58" stroke="rgba(255, 0, 0, 0.62)" stroke-width="1.5"></path><path d="M503.51 397.23L647.94 509.7" stroke="rgba(255, 0, 0, 0.62)" stroke-width="1.5"></path><path d="M503.51 397.23L693.7 399.48" stroke="rgba(255, 0, 0, 0.62)" stroke-width="1.5"></path><path d="M503.51 397.23L362.42 657.39" stroke="rgba(255, 0, 0, 0.62)" stroke-width="1.5"></path><path d="M503.51 397.23L787.51 257.66" stroke="rgba(255, 0, 0, 0.62)" stroke-width="1.5"></path><path d="M508.12 542.58L508.12 542.58" stroke="rgba(255, 0, 0, 0.62)" stroke-width="1.5"></path><path d="M508.12 542.58L647.94 509.7" stroke="rgba(255, 0, 0, 0.62)" stroke-width="1.5"></path><path d="M508.12 542.58L704.23 644.05" stroke="rgba(255, 0, 0, 0.62)" stroke-width="1.5"></path><path d="M693.7 399.48L693.7 399.48" stroke="rgba(255, 0, 0, 0.62)" stroke-width="1.5"></path><path d="M693.7 399.48L647.94 509.7" stroke="rgba(255, 0, 0, 0.62)" stroke-width="1.5"></path><path d="M693.7 399.48L822.44 387.58" stroke="rgba(255, 0, 0, 0.62)" stroke-width="1.5"></path><path d="M693.7 399.48L787.51 257.66" stroke="rgba(255, 0, 0, 0.62)" stroke-width="1.5"></path><path d="M693.7 399.48L821.04 521.01" stroke="rgba(255, 0, 0, 0.62)" stroke-width="1.5"></path><path d="M693.7 399.48L508.12 542.58" stroke="rgba(255, 0, 0, 0.62)" stroke-width="1.5"></path><path d="M647.94 509.7L647.94 509.7" stroke="rgba(255, 0, 0, 0.62)" stroke-width="1.5"></path><path d="M647.94 509.7L704.23 644.05" stroke="rgba(255, 0, 0, 0.62)" stroke-width="1.5"></path><path d="M647.94 509.7L821.04 521.01" stroke="rgba(255, 0, 0, 0.62)" stroke-width="1.5"></path><path d="M704.23 644.05L704.23 644.05" stroke="rgba(255, 0, 0, 0.62)" stroke-width="1.5"></path><path d="M824.83 106.19L824.83 106.19" stroke="rgba(255, 0, 0, 0.62)" stroke-width="1.5"></path><path d="M824.83 106.19L944.05 99.06" stroke="rgba(255, 0, 0, 0.62)" stroke-width="1.5"></path><path d="M824.83 106.19L787.51 257.66" stroke="rgba(255, 0, 0, 0.62)" stroke-width="1.5"></path><path d="M824.83 106.19L953.22 196.78" stroke="rgba(255, 0, 0, 0.62)" stroke-width="1.5"></path><path d="M824.83 106.19L992.81 -50.85" stroke="rgba(255, 0, 0, 0.62)" stroke-width="1.5"></path><path d="M824.83 106.19L822.44 387.58" stroke="rgba(255, 0, 0, 0.62)" stroke-width="1.5"></path><path d="M787.51 257.66L787.51 257.66" stroke="rgba(255, 0, 0, 0.62)" stroke-width="1.5"></path><path d="M787.51 257.66L822.44 387.58" stroke="rgba(255, 0, 0, 0.62)" stroke-width="1.5"></path><path d="M787.51 257.66L953.22 196.78" stroke="rgba(255, 0, 0, 0.62)" stroke-width="1.5"></path><path d="M822.44 387.58L822.44 387.58" stroke="rgba(255, 0, 0, 0.62)" stroke-width="1.5"></path><path d="M822.44 387.58L941.62 366.86" stroke="rgba(255, 0, 0, 0.62)" stroke-width="1.5"></path><path d="M822.44 387.58L821.04 521.01" stroke="rgba(255, 0, 0, 0.62)" stroke-width="1.5"></path><path d="M821.04 521.01L821.04 521.01" stroke="rgba(255, 0, 0, 0.62)" stroke-width="1.5"></path><path d="M821.04 521.01L704.23 644.05" stroke="rgba(255, 0, 0, 0.62)" stroke-width="1.5"></path><path d="M852.17 711.67L852.17 711.67" stroke="rgba(255, 0, 0, 0.62)" stroke-width="1.5"></path><path d="M852.17 711.67L955.36 670.39" stroke="rgba(255, 0, 0, 0.62)" stroke-width="1.5"></path><path d="M852.17 711.67L704.23 644.05" stroke="rgba(255, 0, 0, 0.62)" stroke-width="1.5"></path><path d="M852.17 711.67L821.04 521.01" stroke="rgba(255, 0, 0, 0.62)" stroke-width="1.5"></path><path d="M852.17 711.67L1010.48 508.1" stroke="rgba(255, 0, 0, 0.62)" stroke-width="1.5"></path><path d="M852.17 711.67L1110.51 702.74" stroke="rgba(255, 0, 0, 0.62)" stroke-width="1.5"></path><path d="M992.81 -50.85L992.81 -50.85" stroke="rgba(255, 0, 0, 0.62)" stroke-width="1.5"></path><path d="M992.81 -50.85L944.05 99.06" stroke="rgba(255, 0, 0, 0.62)" stroke-width="1.5"></path><path d="M992.81 -50.85L1159.7 -93.6" stroke="rgba(255, 0, 0, 0.62)" stroke-width="1.5"></path><path d="M944.05 99.06L944.05 99.06" stroke="rgba(255, 0, 0, 0.62)" stroke-width="1.5"></path><path d="M944.05 99.06L953.22 196.78" stroke="rgba(255, 0, 0, 0.62)" stroke-width="1.5"></path><path d="M944.05 99.06L1121.76 94.8" stroke="rgba(255, 0, 0, 0.62)" stroke-width="1.5"></path><path d="M944.05 99.06L1101.54 227.61" stroke="rgba(255, 0, 0, 0.62)" stroke-width="1.5"></path><path d="M953.22 196.78L953.22 196.78" stroke="rgba(255, 0, 0, 0.62)" stroke-width="1.5"></path><path d="M953.22 196.78L1101.54 227.61" stroke="rgba(255, 0, 0, 0.62)" stroke-width="1.5"></path><path d="M953.22 196.78L941.62 366.86" stroke="rgba(255, 0, 0, 0.62)" stroke-width="1.5"></path><path d="M941.62 366.86L941.62 366.86" stroke="rgba(255, 0, 0, 0.62)" stroke-width="1.5"></path><path d="M941.62 366.86L1010.48 508.1" stroke="rgba(255, 0, 0, 0.62)" stroke-width="1.5"></path><path d="M941.62 366.86L1097.14 391.39" stroke="rgba(255, 0, 0, 0.62)" stroke-width="1.5"></path><path d="M1010.48 508.1L1010.48 508.1" stroke="rgba(255, 0, 0, 0.62)" stroke-width="1.5"></path><path d="M1010.48 508.1L1100.78 521.37" stroke="rgba(255, 0, 0, 0.62)" stroke-width="1.5"></path><path d="M1010.48 508.1L1097.14 391.39" stroke="rgba(255, 0, 0, 0.62)" stroke-width="1.5"></path><path d="M1010.48 508.1L955.36 670.39" stroke="rgba(255, 0, 0, 0.62)" stroke-width="1.5"></path><path d="M1010.48 508.1L821.04 521.01" stroke="rgba(255, 0, 0, 0.62)" stroke-width="1.5"></path><path d="M1010.48 508.1L1110.51 702.74" stroke="rgba(255, 0, 0, 0.62)" stroke-width="1.5"></path><path d="M955.36 670.39L955.36 670.39" stroke="rgba(255, 0, 0, 0.62)" stroke-width="1.5"></path><path d="M955.36 670.39L1110.51 702.74" stroke="rgba(255, 0, 0, 0.62)" stroke-width="1.5"></path><path d="M955.36 670.39L821.04 521.01" stroke="rgba(255, 0, 0, 0.62)" stroke-width="1.5"></path><path d="M955.36 670.39L1100.78 521.37" stroke="rgba(255, 0, 0, 0.62)" stroke-width="1.5"></path><path d="M955.36 670.39L704.23 644.05" stroke="rgba(255, 0, 0, 0.62)" stroke-width="1.5"></path><path d="M1159.7 -93.6L1159.7 -93.6" stroke="rgba(255, 0, 0, 0.62)" stroke-width="1.5"></path><path d="M1159.7 -93.6L1287.41 -82.04" stroke="rgba(255, 0, 0, 0.62)" stroke-width="1.5"></path><path d="M1159.7 -93.6L1121.76 94.8" stroke="rgba(255, 0, 0, 0.62)" stroke-width="1.5"></path><path d="M1159.7 -93.6L1275.87 92" stroke="rgba(255, 0, 0, 0.62)" stroke-width="1.5"></path><path d="M1159.7 -93.6L1428.99 -68.72" stroke="rgba(255, 0, 0, 0.62)" stroke-width="1.5"></path><path d="M1159.7 -93.6L944.05 99.06" stroke="rgba(255, 0, 0, 0.62)" stroke-width="1.5"></path><path d="M1121.76 94.8L1121.76 94.8" stroke="rgba(255, 0, 0, 0.62)" stroke-width="1.5"></path><path d="M1121.76 94.8L1101.54 227.61" stroke="rgba(255, 0, 0, 0.62)" stroke-width="1.5"></path><path d="M1121.76 94.8L1275.87 92" stroke="rgba(255, 0, 0, 0.62)" stroke-width="1.5"></path><path d="M1101.54 227.61L1101.54 227.61" stroke="rgba(255, 0, 0, 0.62)" stroke-width="1.5"></path><path d="M1101.54 227.61L1097.14 391.39" stroke="rgba(255, 0, 0, 0.62)" stroke-width="1.5"></path><path d="M1097.14 391.39L1097.14 391.39" stroke="rgba(255, 0, 0, 0.62)" stroke-width="1.5"></path><path d="M1097.14 391.39L1100.78 521.37" stroke="rgba(255, 0, 0, 0.62)" stroke-width="1.5"></path><path d="M1100.78 521.37L1100.78 521.37" stroke="rgba(255, 0, 0, 0.62)" stroke-width="1.5"></path><path d="M1100.78 521.37L1271.97 529.29" stroke="rgba(255, 0, 0, 0.62)" stroke-width="1.5"></path><path d="M1100.78 521.37L1110.51 702.74" stroke="rgba(255, 0, 0, 0.62)" stroke-width="1.5"></path><path d="M1100.78 521.37L1264.94 639.7" stroke="rgba(255, 0, 0, 0.62)" stroke-width="1.5"></path><path d="M1110.51 702.74L1110.51 702.74" stroke="rgba(255, 0, 0, 0.62)" stroke-width="1.5"></path><path d="M1110.51 702.74L1264.94 639.7" stroke="rgba(255, 0, 0, 0.62)" stroke-width="1.5"></path><path d="M1110.51 702.74L1271.97 529.29" stroke="rgba(255, 0, 0, 0.62)" stroke-width="1.5"></path><path d="M1287.41 -82.04L1287.41 -82.04" stroke="rgba(255, 0, 0, 0.62)" stroke-width="1.5"></path><path d="M1287.41 -82.04L1428.99 -68.72" stroke="rgba(255, 0, 0, 0.62)" stroke-width="1.5"></path><path d="M1287.41 -82.04L1275.87 92" stroke="rgba(255, 0, 0, 0.62)" stroke-width="1.5"></path><path d="M1275.87 92L1275.87 92" stroke="rgba(255, 0, 0, 0.62)" stroke-width="1.5"></path><path d="M1275.87 92L1270.99 195.29" stroke="rgba(255, 0, 0, 0.62)" stroke-width="1.5"></path><path d="M1275.87 92L1426.92 82.27" stroke="rgba(255, 0, 0, 0.62)" stroke-width="1.5"></path><path d="M1275.87 92L1409.42 238.64" stroke="rgba(255, 0, 0, 0.62)" stroke-width="1.5"></path><path d="M1270.99 195.29L1270.99 195.29" stroke="rgba(255, 0, 0, 0.62)" stroke-width="1.5"></path><path d="M1270.99 195.29L1409.42 238.64" stroke="rgba(255, 0, 0, 0.62)" stroke-width="1.5"></path><path d="M1270.99 195.29L1101.54 227.61" stroke="rgba(255, 0, 0, 0.62)" stroke-width="1.5"></path><path d="M1270.99 195.29L1121.76 94.8" stroke="rgba(255, 0, 0, 0.62)" stroke-width="1.5"></path><path d="M1303.88 386.23L1303.88 386.23" stroke="rgba(255, 0, 0, 0.62)" stroke-width="1.5"></path><path d="M1303.88 386.23L1398.25 352.47" stroke="rgba(255, 0, 0, 0.62)" stroke-width="1.5"></path><path d="M1303.88 386.23L1271.97 529.29" stroke="rgba(255, 0, 0, 0.62)" stroke-width="1.5"></path><path d="M1303.88 386.23L1434.28 491.06" stroke="rgba(255, 0, 0, 0.62)" stroke-width="1.5"></path><path d="M1271.97 529.29L1271.97 529.29" stroke="rgba(255, 0, 0, 0.62)" stroke-width="1.5"></path><path d="M1271.97 529.29L1264.94 639.7" stroke="rgba(255, 0, 0, 0.62)" stroke-width="1.5"></path><path d="M1271.97 529.29L1434.28 491.06" stroke="rgba(255, 0, 0, 0.62)" stroke-width="1.5"></path><path d="M1264.94 639.7L1264.94 639.7" stroke="rgba(255, 0, 0, 0.62)" stroke-width="1.5"></path><path d="M1264.94 639.7L1412.18 641.23" stroke="rgba(255, 0, 0, 0.62)" stroke-width="1.5"></path><path d="M1428.99 -68.72L1428.99 -68.72" stroke="rgba(255, 0, 0, 0.62)" stroke-width="1.5"></path><path d="M1428.99 -68.72L1426.92 82.27" stroke="rgba(255, 0, 0, 0.62)" stroke-width="1.5"></path><path d="M1428.99 -68.72L1589.73 -47.49" stroke="rgba(255, 0, 0, 0.62)" stroke-width="1.5"></path><path d="M1428.99 -68.72L1600.36 67.87" stroke="rgba(255, 0, 0, 0.62)" stroke-width="1.5"></path><path d="M1428.99 -68.72L1275.87 92" stroke="rgba(255, 0, 0, 0.62)" stroke-width="1.5"></path><path d="M1426.92 82.27L1426.92 82.27" stroke="rgba(255, 0, 0, 0.62)" stroke-width="1.5"></path><path d="M1409.42 238.64L1409.42 238.64" stroke="rgba(255, 0, 0, 0.62)" stroke-width="1.5"></path><path d="M1409.42 238.64L1398.25 352.47" stroke="rgba(255, 0, 0, 0.62)" stroke-width="1.5"></path><path d="M1409.42 238.64L1426.92 82.27" stroke="rgba(255, 0, 0, 0.62)" stroke-width="1.5"></path><path d="M1409.42 238.64L1303.88 386.23" stroke="rgba(255, 0, 0, 0.62)" stroke-width="1.5"></path><path d="M1409.42 238.64L1601.11 212.94" stroke="rgba(255, 0, 0, 0.62)" stroke-width="1.5"></path><path d="M1398.25 352.47L1398.25 352.47" stroke="rgba(255, 0, 0, 0.62)" stroke-width="1.5"></path><path d="M1434.28 491.06L1434.28 491.06" stroke="rgba(255, 0, 0, 0.62)" stroke-width="1.5"></path><path d="M1434.28 491.06L1398.25 352.47" stroke="rgba(255, 0, 0, 0.62)" stroke-width="1.5"></path><path d="M1434.28 491.06L1412.18 641.23" stroke="rgba(255, 0, 0, 0.62)" stroke-width="1.5"></path><path d="M1412.18 641.23L1412.18 641.23" stroke="rgba(255, 0, 0, 0.62)" stroke-width="1.5"></path><path d="M1589.73 -47.49L1589.73 -47.49" stroke="rgba(255, 0, 0, 0.62)" stroke-width="1.5"></path><path d="M1589.73 -47.49L1600.36 67.87" stroke="rgba(255, 0, 0, 0.62)" stroke-width="1.5"></path><path d="M1589.73 -47.49L1426.92 82.27" stroke="rgba(255, 0, 0, 0.62)" stroke-width="1.5"></path><path d="M1589.73 -47.49L1601.11 212.94" stroke="rgba(255, 0, 0, 0.62)" stroke-width="1.5"></path><path d="M1589.73 -47.49L1287.41 -82.04" stroke="rgba(255, 0, 0, 0.62)" stroke-width="1.5"></path><path d="M1600.36 67.87L1600.36 67.87" stroke="rgba(255, 0, 0, 0.62)" stroke-width="1.5"></path><path d="M1601.11 212.94L1601.11 212.94" stroke="rgba(255, 0, 0, 0.62)" stroke-width="1.5"></path><path d="M1601.11 212.94L1600.36 67.87" stroke="rgba(255, 0, 0, 0.62)" stroke-width="1.5"></path><path d="M1601.11 212.94L1565.9 376.2" stroke="rgba(255, 0, 0, 0.62)" stroke-width="1.5"></path><path d="M1601.11 212.94L1426.92 82.27" stroke="rgba(255, 0, 0, 0.62)" stroke-width="1.5"></path><path d="M1565.9 376.2L1565.9 376.2" stroke="rgba(255, 0, 0, 0.62)" stroke-width="1.5"></path><path d="M1565.9 376.2L1398.25 352.47" stroke="rgba(255, 0, 0, 0.62)" stroke-width="1.5"></path><path d="M1565.9 376.2L1434.28 491.06" stroke="rgba(255, 0, 0, 0.62)" stroke-width="1.5"></path><path d="M1565.9 376.2L1409.42 238.64" stroke="rgba(255, 0, 0, 0.62)" stroke-width="1.5"></path><circle r="5" cx="-73.61" cy="509.74" fill="rgba(255, 0, 0, 0.62)"></circle><circle r="5" cx="-70.92" cy="639.58" fill="rgba(255, 0, 0, 0.62)"></circle><circle r="5" cx="40.55" cy="338.27" fill="rgba(255, 0, 0, 0.62)"></circle><circle r="5" cx="83.8" cy="549.23" fill="rgba(255, 0, 0, 0.62)"></circle><circle r="5" cx="101.77" cy="698.35" fill="rgba(255, 0, 0, 0.62)"></circle><circle r="5" cx="187.88" cy="525.47" fill="rgba(255, 0, 0, 0.62)"></circle><circle r="5" cx="248.39" cy="705.84" fill="rgba(255, 0, 0, 0.62)"></circle><circle r="5" cx="362.42" cy="657.39" fill="rgba(255, 0, 0, 0.62)"></circle><circle r="5" cx="503.51" cy="397.23" fill="rgba(255, 0, 0, 0.62)"></circle><circle r="5" cx="508.12" cy="542.58" fill="rgba(255, 0, 0, 0.62)"></circle><circle r="5" cx="693.7" cy="399.48" fill="rgba(255, 0, 0, 0.62)"></circle><circle r="5" cx="647.94" cy="509.7" fill="rgba(255, 0, 0, 0.62)"></circle><circle r="5" cx="704.23" cy="644.05" fill="rgba(255, 0, 0, 0.62)"></circle><circle r="5" cx="824.83" cy="106.19" fill="rgba(255, 0, 0, 0.62)"></circle><circle r="5" cx="787.51" cy="257.66" fill="rgba(255, 0, 0, 0.62)"></circle><circle r="5" cx="822.44" cy="387.58" fill="rgba(255, 0, 0, 0.62)"></circle><circle r="5" cx="821.04" cy="521.01" fill="rgba(255, 0, 0, 0.62)"></circle><circle r="5" cx="852.17" cy="711.67" fill="rgba(255, 0, 0, 0.62)"></circle><circle r="5" cx="992.81" cy="-50.85" fill="rgba(255, 0, 0, 0.62)"></circle><circle r="5" cx="944.05" cy="99.06" fill="rgba(255, 0, 0, 0.62)"></circle><circle r="5" cx="953.22" cy="196.78" fill="rgba(255, 0, 0, 0.62)"></circle><circle r="5" cx="941.62" cy="366.86" fill="rgba(255, 0, 0, 0.62)"></circle><circle r="5" cx="1010.48" cy="508.1" fill="rgba(255, 0, 0, 0.62)"></circle><circle r="5" cx="955.36" cy="670.39" fill="rgba(255, 0, 0, 0.62)"></circle><circle r="5" cx="1159.7" cy="-93.6" fill="rgba(255, 0, 0, 0.62)"></circle><circle r="5" cx="1121.76" cy="94.8" fill="rgba(255, 0, 0, 0.62)"></circle><circle r="5" cx="1101.54" cy="227.61" fill="rgba(255, 0, 0, 0.62)"></circle><circle r="5" cx="1097.14" cy="391.39" fill="rgba(255, 0, 0, 0.62)"></circle><circle r="5" cx="1100.78" cy="521.37" fill="rgba(255, 0, 0, 0.62)"></circle><circle r="5" cx="1110.51" cy="702.74" fill="rgba(255, 0, 0, 0.62)"></circle><circle r="5" cx="1287.41" cy="-82.04" fill="rgba(255, 0, 0, 0.62)"></circle><circle r="5" cx="1275.87" cy="92" fill="rgba(255, 0, 0, 0.62)"></circle><circle r="5" cx="1270.99" cy="195.29" fill="rgba(255, 0, 0, 0.62)"></circle><circle r="5" cx="1303.88" cy="386.23" fill="rgba(255, 0, 0, 0.62)"></circle><circle r="5" cx="1271.97" cy="529.29" fill="rgba(255, 0, 0, 0.62)"></circle><circle r="5" cx="1264.94" cy="639.7" fill="rgba(255, 0, 0, 0.62)"></circle><circle r="5" cx="1428.99" cy="-68.72" fill="rgba(255, 0, 0, 0.62)"></circle><circle r="5" cx="1426.92" cy="82.27" fill="rgba(255, 0, 0, 0.62)"></circle><circle r="5" cx="1409.42" cy="238.64" fill="rgba(255, 0, 0, 0.62)"></circle><circle r="5" cx="1398.25" cy="352.47" fill="rgba(255, 0, 0, 0.62)"></circle><circle r="5" cx="1434.28" cy="491.06" fill="rgba(255, 0, 0, 0.62)"></circle><circle r="5" cx="1412.18" cy="641.23" fill="rgba(255, 0, 0, 0.62)"></circle><circle r="5" cx="1589.73" cy="-47.49" fill="rgba(255, 0, 0, 0.62)"></circle><circle r="5" cx="1600.36" cy="67.87" fill="rgba(255, 0, 0, 0.62)"></circle><circle r="5" cx="1601.11" cy="212.94" fill="rgba(255, 0, 0, 0.62)"></circle><circle r="5" cx="1565.9" cy="376.2" fill="rgba(255, 0, 0, 0.62)"></circle><path d="M-54.11 513.57L-54.11 513.57" stroke="hsl(31.5, 72.7%, 63.5%)" stroke-width="1.5"></path><path d="M-54.11 513.57L94.72 489.41" stroke="hsl(31.5, 72.7%, 63.5%)" stroke-width="1.5"></path><path d="M-54.11 513.57L-53.33 698.3" stroke="hsl(31.5, 72.7%, 63.5%)" stroke-width="1.5"></path><path d="M-54.11 513.57L65.2 660.36" stroke="hsl(31.5, 72.7%, 63.5%)" stroke-width="1.5"></path><path d="M-54.11 513.57L201.73 533.12" stroke="hsl(31.5, 72.7%, 63.5%)" stroke-width="1.5"></path><path d="M-54.11 513.57L198.45 677.96" stroke="hsl(31.5, 72.7%, 63.5%)" stroke-width="1.5"></path><path d="M-54.11 513.57L408.93 661.96" stroke="hsl(31.5, 72.7%, 63.5%)" stroke-width="1.5"></path><path d="M408.93 661.96L408.93 661.96" stroke="hsl(31.5, 72.7%, 63.5%)" stroke-width="1.5"></path><path d="M408.93 661.96L496.4 654.9" stroke="hsl(31.5, 72.7%, 63.5%)" stroke-width="1.5"></path><path d="M408.93 661.96L558.8 542.16" stroke="hsl(31.5, 72.7%, 63.5%)" stroke-width="1.5"></path><path d="M408.93 661.96L198.45 677.96" stroke="hsl(31.5, 72.7%, 63.5%)" stroke-width="1.5"></path><path d="M408.93 661.96L646.47 686.18" stroke="hsl(31.5, 72.7%, 63.5%)" stroke-width="1.5"></path><path d="M408.93 661.96L201.73 533.12" stroke="hsl(31.5, 72.7%, 63.5%)" stroke-width="1.5"></path><path d="M408.93 661.96L643.49 489.94" stroke="hsl(31.5, 72.7%, 63.5%)" stroke-width="1.5"></path><path d="M558.8 542.16L558.8 542.16" stroke="hsl(31.5, 72.7%, 63.5%)" stroke-width="1.5"></path><path d="M558.8 542.16L643.49 489.94" stroke="hsl(31.5, 72.7%, 63.5%)" stroke-width="1.5"></path><path d="M558.8 542.16L496.4 654.9" stroke="hsl(31.5, 72.7%, 63.5%)" stroke-width="1.5"></path><path d="M643.49 489.94L643.49 489.94" stroke="hsl(31.5, 72.7%, 63.5%)" stroke-width="1.5"></path><path d="M643.49 489.94L800.78 553.47" stroke="hsl(31.5, 72.7%, 63.5%)" stroke-width="1.5"></path><path d="M643.49 489.94L646.47 686.18" stroke="hsl(31.5, 72.7%, 63.5%)" stroke-width="1.5"></path><path d="M643.49 489.94L496.4 654.9" stroke="hsl(31.5, 72.7%, 63.5%)" stroke-width="1.5"></path><path d="M643.49 489.94L821.49 704.51" stroke="hsl(31.5, 72.7%, 63.5%)" stroke-width="1.5"></path><path d="M821.49 704.51L821.49 704.51" stroke="hsl(31.5, 72.7%, 63.5%)" stroke-width="1.5"></path><path d="M821.49 704.51L800.78 553.47" stroke="hsl(31.5, 72.7%, 63.5%)" stroke-width="1.5"></path><path d="M821.49 704.51L646.47 686.18" stroke="hsl(31.5, 72.7%, 63.5%)" stroke-width="1.5"></path><path d="M821.49 704.51L1010.81 678.46" stroke="hsl(31.5, 72.7%, 63.5%)" stroke-width="1.5"></path><path d="M821.49 704.51L983.49 537.43" stroke="hsl(31.5, 72.7%, 63.5%)" stroke-width="1.5"></path><path d="M821.49 704.51L1112.38 640.59" stroke="hsl(31.5, 72.7%, 63.5%)" stroke-width="1.5"></path><path d="M1158.54 -58.88L1158.54 -58.88" stroke="hsl(31.5, 72.7%, 63.5%)" stroke-width="1.5"></path><path d="M1158.54 -58.88L1250.3 -49" stroke="hsl(31.5, 72.7%, 63.5%)" stroke-width="1.5"></path><path d="M1158.54 -58.88L1255.48 111.13" stroke="hsl(31.5, 72.7%, 63.5%)" stroke-width="1.5"></path><path d="M1158.54 -58.88L1388.51 -81.38" stroke="hsl(31.5, 72.7%, 63.5%)" stroke-width="1.5"></path><path d="M1158.54 -58.88L1104.59 222.54" stroke="hsl(31.5, 72.7%, 63.5%)" stroke-width="1.5"></path><path d="M1112.38 640.59L1112.38 640.59" stroke="hsl(31.5, 72.7%, 63.5%)" stroke-width="1.5"></path><path d="M1112.38 640.59L1010.81 678.46" stroke="hsl(31.5, 72.7%, 63.5%)" stroke-width="1.5"></path><path d="M1112.38 640.59L1089.45 518.76" stroke="hsl(31.5, 72.7%, 63.5%)" stroke-width="1.5"></path><path d="M1255.48 111.13L1255.48 111.13" stroke="hsl(31.5, 72.7%, 63.5%)" stroke-width="1.5"></path><path d="M1255.48 111.13L1293.85 252.75" stroke="hsl(31.5, 72.7%, 63.5%)" stroke-width="1.5"></path><path d="M1307.58 691.14L1307.58 691.14" stroke="hsl(31.5, 72.7%, 63.5%)" stroke-width="1.5"></path><path d="M1307.58 691.14L1276.45 528.4" stroke="hsl(31.5, 72.7%, 63.5%)" stroke-width="1.5"></path><path d="M1307.58 691.14L1112.38 640.59" stroke="hsl(31.5, 72.7%, 63.5%)" stroke-width="1.5"></path><path d="M1307.58 691.14L1414.18 519.69" stroke="hsl(31.5, 72.7%, 63.5%)" stroke-width="1.5"></path><path d="M1307.58 691.14L1089.45 518.76" stroke="hsl(31.5, 72.7%, 63.5%)" stroke-width="1.5"></path><path d="M1307.58 691.14L1259.87 399.71" stroke="hsl(31.5, 72.7%, 63.5%)" stroke-width="1.5"></path><path d="M1455.07 71.58L1455.07 71.58" stroke="hsl(31.5, 72.7%, 63.5%)" stroke-width="1.5"></path><path d="M1455.07 71.58L1565.52 111.3" stroke="hsl(31.5, 72.7%, 63.5%)" stroke-width="1.5"></path><path d="M1455.07 71.58L1423.32 219.27" stroke="hsl(31.5, 72.7%, 63.5%)" stroke-width="1.5"></path><path d="M1455.07 71.58L1388.51 -81.38" stroke="hsl(31.5, 72.7%, 63.5%)" stroke-width="1.5"></path><path d="M1455.07 71.58L1588.51 -41.48" stroke="hsl(31.5, 72.7%, 63.5%)" stroke-width="1.5"></path><path d="M1455.07 71.58L1255.48 111.13" stroke="hsl(31.5, 72.7%, 63.5%)" stroke-width="1.5"></path><path d="M1455.07 71.58L1549.99 258.96" stroke="hsl(31.5, 72.7%, 63.5%)" stroke-width="1.5"></path><path d="M1451.14 372.29L1451.14 372.29" stroke="hsl(31.5, 72.7%, 63.5%)" stroke-width="1.5"></path><path d="M1451.14 372.29L1541.54 412.3" stroke="hsl(31.5, 72.7%, 63.5%)" stroke-width="1.5"></path><path d="M1451.14 372.29L1549.99 258.96" stroke="hsl(31.5, 72.7%, 63.5%)" stroke-width="1.5"></path><path d="M1451.14 372.29L1414.18 519.69" stroke="hsl(31.5, 72.7%, 63.5%)" stroke-width="1.5"></path><path d="M1451.14 372.29L1423.32 219.27" stroke="hsl(31.5, 72.7%, 63.5%)" stroke-width="1.5"></path><path d="M1451.14 372.29L1259.87 399.71" stroke="hsl(31.5, 72.7%, 63.5%)" stroke-width="1.5"></path><path d="M-53.33 698.3L-53.33 698.3" stroke="hsl(31.5, 72.7%, 63.5%)" stroke-width="1.5"></path><path d="M-53.33 698.3L65.2 660.36" stroke="hsl(31.5, 72.7%, 63.5%)" stroke-width="1.5"></path><path d="M94.72 489.41L94.72 489.41" stroke="hsl(31.5, 72.7%, 63.5%)" stroke-width="1.5"></path><path d="M94.72 489.41L201.73 533.12" stroke="hsl(31.5, 72.7%, 63.5%)" stroke-width="1.5"></path><path d="M94.72 489.41L65.2 660.36" stroke="hsl(31.5, 72.7%, 63.5%)" stroke-width="1.5"></path><path d="M65.2 660.36L65.2 660.36" stroke="hsl(31.5, 72.7%, 63.5%)" stroke-width="1.5"></path><path d="M65.2 660.36L198.45 677.96" stroke="hsl(31.5, 72.7%, 63.5%)" stroke-width="1.5"></path><path d="M201.73 533.12L201.73 533.12" stroke="hsl(31.5, 72.7%, 63.5%)" stroke-width="1.5"></path><path d="M201.73 533.12L198.45 677.96" stroke="hsl(31.5, 72.7%, 63.5%)" stroke-width="1.5"></path><path d="M201.73 533.12L65.2 660.36" stroke="hsl(31.5, 72.7%, 63.5%)" stroke-width="1.5"></path><path d="M198.45 677.96L198.45 677.96" stroke="hsl(31.5, 72.7%, 63.5%)" stroke-width="1.5"></path><path d="M198.45 677.96L94.72 489.41" stroke="hsl(31.5, 72.7%, 63.5%)" stroke-width="1.5"></path><path d="M496.4 654.9L496.4 654.9" stroke="hsl(31.5, 72.7%, 63.5%)" stroke-width="1.5"></path><path d="M496.4 654.9L646.47 686.18" stroke="hsl(31.5, 72.7%, 63.5%)" stroke-width="1.5"></path><path d="M496.4 654.9L198.45 677.96" stroke="hsl(31.5, 72.7%, 63.5%)" stroke-width="1.5"></path><path d="M496.4 654.9L201.73 533.12" stroke="hsl(31.5, 72.7%, 63.5%)" stroke-width="1.5"></path><path d="M646.47 686.18L646.47 686.18" stroke="hsl(31.5, 72.7%, 63.5%)" stroke-width="1.5"></path><path d="M646.47 686.18L558.8 542.16" stroke="hsl(31.5, 72.7%, 63.5%)" stroke-width="1.5"></path><path d="M646.47 686.18L800.78 553.47" stroke="hsl(31.5, 72.7%, 63.5%)" stroke-width="1.5"></path><path d="M800.78 553.47L800.78 553.47" stroke="hsl(31.5, 72.7%, 63.5%)" stroke-width="1.5"></path><path d="M800.78 553.47L983.49 537.43" stroke="hsl(31.5, 72.7%, 63.5%)" stroke-width="1.5"></path><path d="M800.78 553.47L558.8 542.16" stroke="hsl(31.5, 72.7%, 63.5%)" stroke-width="1.5"></path><path d="M1007.52 397.56L1007.52 397.56" stroke="hsl(31.5, 72.7%, 63.5%)" stroke-width="1.5"></path><path d="M1007.52 397.56L1121.95 391.02" stroke="hsl(31.5, 72.7%, 63.5%)" stroke-width="1.5"></path><path d="M1007.52 397.56L983.49 537.43" stroke="hsl(31.5, 72.7%, 63.5%)" stroke-width="1.5"></path><path d="M1007.52 397.56L1089.45 518.76" stroke="hsl(31.5, 72.7%, 63.5%)" stroke-width="1.5"></path><path d="M1007.52 397.56L1104.59 222.54" stroke="hsl(31.5, 72.7%, 63.5%)" stroke-width="1.5"></path><path d="M983.49 537.43L983.49 537.43" stroke="hsl(31.5, 72.7%, 63.5%)" stroke-width="1.5"></path><path d="M983.49 537.43L1089.45 518.76" stroke="hsl(31.5, 72.7%, 63.5%)" stroke-width="1.5"></path><path d="M983.49 537.43L1010.81 678.46" stroke="hsl(31.5, 72.7%, 63.5%)" stroke-width="1.5"></path><path d="M1010.81 678.46L1010.81 678.46" stroke="hsl(31.5, 72.7%, 63.5%)" stroke-width="1.5"></path><path d="M1010.81 678.46L1089.45 518.76" stroke="hsl(31.5, 72.7%, 63.5%)" stroke-width="1.5"></path><path d="M1104.59 222.54L1104.59 222.54" stroke="hsl(31.5, 72.7%, 63.5%)" stroke-width="1.5"></path><path d="M1104.59 222.54L1121.95 391.02" stroke="hsl(31.5, 72.7%, 63.5%)" stroke-width="1.5"></path><path d="M1104.59 222.54L1255.48 111.13" stroke="hsl(31.5, 72.7%, 63.5%)" stroke-width="1.5"></path><path d="M1121.95 391.02L1121.95 391.02" stroke="hsl(31.5, 72.7%, 63.5%)" stroke-width="1.5"></path><path d="M1121.95 391.02L1089.45 518.76" stroke="hsl(31.5, 72.7%, 63.5%)" stroke-width="1.5"></path><path d="M1121.95 391.02L1259.87 399.71" stroke="hsl(31.5, 72.7%, 63.5%)" stroke-width="1.5"></path><path d="M1089.45 518.76L1089.45 518.76" stroke="hsl(31.5, 72.7%, 63.5%)" stroke-width="1.5"></path><path d="M1250.3 -49L1250.3 -49" stroke="hsl(31.5, 72.7%, 63.5%)" stroke-width="1.5"></path><path d="M1250.3 -49L1388.51 -81.38" stroke="hsl(31.5, 72.7%, 63.5%)" stroke-width="1.5"></path><path d="M1250.3 -49L1255.48 111.13" stroke="hsl(31.5, 72.7%, 63.5%)" stroke-width="1.5"></path><path d="M1250.3 -49L1455.07 71.58" stroke="hsl(31.5, 72.7%, 63.5%)" stroke-width="1.5"></path><path d="M1250.3 -49L1293.85 252.75" stroke="hsl(31.5, 72.7%, 63.5%)" stroke-width="1.5"></path><path d="M1250.3 -49L1104.59 222.54" stroke="hsl(31.5, 72.7%, 63.5%)" stroke-width="1.5"></path><path d="M1293.85 252.75L1293.85 252.75" stroke="hsl(31.5, 72.7%, 63.5%)" stroke-width="1.5"></path><path d="M1293.85 252.75L1423.32 219.27" stroke="hsl(31.5, 72.7%, 63.5%)" stroke-width="1.5"></path><path d="M1293.85 252.75L1259.87 399.71" stroke="hsl(31.5, 72.7%, 63.5%)" stroke-width="1.5"></path><path d="M1293.85 252.75L1104.59 222.54" stroke="hsl(31.5, 72.7%, 63.5%)" stroke-width="1.5"></path><path d="M1293.85 252.75L1451.14 372.29" stroke="hsl(31.5, 72.7%, 63.5%)" stroke-width="1.5"></path><path d="M1259.87 399.71L1259.87 399.71" stroke="hsl(31.5, 72.7%, 63.5%)" stroke-width="1.5"></path><path d="M1259.87 399.71L1276.45 528.4" stroke="hsl(31.5, 72.7%, 63.5%)" stroke-width="1.5"></path><path d="M1259.87 399.71L1414.18 519.69" stroke="hsl(31.5, 72.7%, 63.5%)" stroke-width="1.5"></path><path d="M1259.87 399.71L1089.45 518.76" stroke="hsl(31.5, 72.7%, 63.5%)" stroke-width="1.5"></path><path d="M1276.45 528.4L1276.45 528.4" stroke="hsl(31.5, 72.7%, 63.5%)" stroke-width="1.5"></path><path d="M1276.45 528.4L1414.18 519.69" stroke="hsl(31.5, 72.7%, 63.5%)" stroke-width="1.5"></path><path d="M1276.45 528.4L1089.45 518.76" stroke="hsl(31.5, 72.7%, 63.5%)" stroke-width="1.5"></path><path d="M1388.51 -81.38L1388.51 -81.38" stroke="hsl(31.5, 72.7%, 63.5%)" stroke-width="1.5"></path><path d="M1423.32 219.27L1423.32 219.27" stroke="hsl(31.5, 72.7%, 63.5%)" stroke-width="1.5"></path><path d="M1423.32 219.27L1549.99 258.96" stroke="hsl(31.5, 72.7%, 63.5%)" stroke-width="1.5"></path><path d="M1414.18 519.69L1414.18 519.69" stroke="hsl(31.5, 72.7%, 63.5%)" stroke-width="1.5"></path><path d="M1414.18 519.69L1541.54 412.3" stroke="hsl(31.5, 72.7%, 63.5%)" stroke-width="1.5"></path><path d="M1588.51 -41.48L1588.51 -41.48" stroke="hsl(31.5, 72.7%, 63.5%)" stroke-width="1.5"></path><path d="M1588.51 -41.48L1565.52 111.3" stroke="hsl(31.5, 72.7%, 63.5%)" stroke-width="1.5"></path><path d="M1565.52 111.3L1565.52 111.3" stroke="hsl(31.5, 72.7%, 63.5%)" stroke-width="1.5"></path><path d="M1565.52 111.3L1549.99 258.96" stroke="hsl(31.5, 72.7%, 63.5%)" stroke-width="1.5"></path><path d="M1565.52 111.3L1423.32 219.27" stroke="hsl(31.5, 72.7%, 63.5%)" stroke-width="1.5"></path><path d="M1565.52 111.3L1388.51 -81.38" stroke="hsl(31.5, 72.7%, 63.5%)" stroke-width="1.5"></path><path d="M1565.52 111.3L1451.14 372.29" stroke="hsl(31.5, 72.7%, 63.5%)" stroke-width="1.5"></path><path d="M1549.99 258.96L1549.99 258.96" stroke="hsl(31.5, 72.7%, 63.5%)" stroke-width="1.5"></path><path d="M1541.54 412.3L1541.54 412.3" stroke="hsl(31.5, 72.7%, 63.5%)" stroke-width="1.5"></path><path d="M1541.54 412.3L1549.99 258.96" stroke="hsl(31.5, 72.7%, 63.5%)" stroke-width="1.5"></path><path d="M1541.54 412.3L1423.32 219.27" stroke="hsl(31.5, 72.7%, 63.5%)" stroke-width="1.5"></path><path d="M1541.54 412.3L1259.87 399.71" stroke="hsl(31.5, 72.7%, 63.5%)" stroke-width="1.5"></path><path d="M1541.54 412.3L1276.45 528.4" stroke="hsl(31.5, 72.7%, 63.5%)" stroke-width="1.5"></path><circle r="25" cx="-54.11" cy="513.57" fill="url(&quot;#SvgjsRadialGradient1023&quot;)"></circle><circle r="25" cx="408.93" cy="661.96" fill="url(&quot;#SvgjsRadialGradient1023&quot;)"></circle><circle r="25" cx="558.8" cy="542.16" fill="url(&quot;#SvgjsRadialGradient1023&quot;)"></circle><circle r="25" cx="643.49" cy="489.94" fill="url(&quot;#SvgjsRadialGradient1023&quot;)"></circle><circle r="25" cx="821.49" cy="704.51" fill="url(&quot;#SvgjsRadialGradient1023&quot;)"></circle><circle r="25" cx="1158.54" cy="-58.88" fill="url(&quot;#SvgjsRadialGradient1023&quot;)"></circle><circle r="25" cx="1112.38" cy="640.59" fill="url(&quot;#SvgjsRadialGradient1023&quot;)"></circle><circle r="25" cx="1255.48" cy="111.13" fill="url(&quot;#SvgjsRadialGradient1023&quot;)"></circle><circle r="25" cx="1307.58" cy="691.14" fill="url(&quot;#SvgjsRadialGradient1023&quot;)"></circle><circle r="25" cx="1455.07" cy="71.58" fill="url(&quot;#SvgjsRadialGradient1023&quot;)"></circle><circle r="25" cx="1451.14" cy="372.29" fill="url(&quot;#SvgjsRadialGradient1023&quot;)"></circle><circle r="5" cx="-53.33" cy="698.3" fill="#ebc091"></circle><circle r="5" cx="94.72" cy="489.41" fill="#ebc091"></circle><circle r="5" cx="65.2" cy="660.36" fill="#ebc091"></circle><circle r="5" cx="201.73" cy="533.12" fill="#ebc091"></circle><circle r="5" cx="198.45" cy="677.96" fill="#ebc091"></circle><circle r="5" cx="496.4" cy="654.9" fill="#ebc091"></circle><circle r="5" cx="646.47" cy="686.18" fill="#ebc091"></circle><circle r="5" cx="800.78" cy="553.47" fill="#ebc091"></circle><circle r="5" cx="1007.52" cy="397.56" fill="#ebc091"></circle><circle r="5" cx="983.49" cy="537.43" fill="#ebc091"></circle><circle r="5" cx="1010.81" cy="678.46" fill="#ebc091"></circle><circle r="5" cx="1104.59" cy="222.54" fill="#ebc091"></circle><circle r="5" cx="1121.95" cy="391.02" fill="#ebc091"></circle><circle r="5" cx="1089.45" cy="518.76" fill="#ebc091"></circle><circle r="5" cx="1250.3" cy="-49" fill="#ebc091"></circle><circle r="5" cx="1293.85" cy="252.75" fill="#ebc091"></circle><circle r="5" cx="1259.87" cy="399.71" fill="#ebc091"></circle><circle r="5" cx="1276.45" cy="528.4" fill="#ebc091"></circle><circle r="5" cx="1388.51" cy="-81.38" fill="#ebc091"></circle><circle r="5" cx="1423.32" cy="219.27" fill="#ebc091"></circle><circle r="5" cx="1414.18" cy="519.69" fill="#ebc091"></circle><circle r="5" cx="1588.51" cy="-41.48" fill="#ebc091"></circle><circle r="5" cx="1565.52" cy="111.3" fill="#ebc091"></circle><circle r="5" cx="1549.99" cy="258.96" fill="#ebc091"></circle><circle r="5" cx="1541.54" cy="412.3" fill="#ebc091"></circle></g><defs><mask id="SvgjsMask1021"><rect width="1440" height="560" fill="#ffffff"></rect></mask><linearGradient x1="15.28%" y1="-39.29%" x2="84.72%" y2="139.29%" gradientUnits="userSpaceOnUse" id="SvgjsLinearGradient1022"><stop stop-color="#0e2a47" offset="0"></stop><stop stop-color="rgba(158, 0, 54, 1)" offset="1"></stop></linearGradient><radialGradient id="SvgjsRadialGradient1023"><stop stop-color="#ffffff" offset="0.1"></stop><stop stop-color="rgba(215, 129, 34, 1)" offset="0.2"></stop><stop stop-color="rgba(215, 129, 34, 0)" offset="1"></stop></radialGradient></defs></svg>