<svg xmlns="http://www.w3.org/2000/svg" version="1.1" xmlns:xlink="http://www.w3.org/1999/xlink" xmlns:svgjs="http://svgjs.dev/svgjs" width="1440" height="4260" preserveAspectRatio="none" viewBox="0 0 1440 4260"><g mask="url(&quot;#SvgjsMask1002&quot;)" fill="none"><rect width="1440" height="4260" x="0" y="0" fill="url(&quot;#SvgjsLinearGradient1003&quot;)"></rect><path d="M663.53 0C708.07 10.18 695.06 82.29 720 82.29C742.75 82.29 719.16 9.09 758.92 0C899.16 -32.06 919.46 0 1080 0C1260 0 1350 -90 1440 0C1530 90 1440 180 1440 360C1440 540 1440 540 1440 720C1440 859.36 1495.25 896.1 1440 998.71C1398.33 1076.1 1269.12 999.55 1246.15 1080C1206.12 1220.2 1281.84 1259.68 1314 1440C1346.04 1619.68 1321.87 1637.44 1374.55 1800C1384.87 1831.84 1434.19 1796.84 1440 1828.8C1466.91 1976.84 1440 1994.4 1440 2160C1440 2340 1440 2340 1440 2520C1440 2700 1440 2700 1440 2880C1440 3060 1440 3060 1440 3240C1440 3420 1440 3420 1440 3600C1440 3780 1440 3780 1440 3960C1440 4140 1452.86 4152.86 1440 4320C1439.01 4332.86 1425.73 4323.29 1412.31 4320C1245.73 4279.21 1232.49 4231.84 1080 4231.84C1028.44 4231.84 1056.47 4307.2 1004.21 4320C876.47 4351.28 862.11 4320 720 4320C540 4320 540 4320 360 4320C180 4320 91.29 4408.71 0 4320C-88.71 4233.78 -6.99 4141.4 0 3970.14C0.36 3961.4 8.41 3966.33 14.69 3960C188.41 3785.01 185.77 3781.58 360 3607.5C365.92 3601.58 375 3603.56 375 3600C375 3596.53 368.12 3594.33 360 3593.45C180.62 3574.08 95.56 3653.32 0 3559.5C-84.44 3476.6 0 3399.75 0 3240C0 3080.25 -19.41 3071.44 0 2920.5C3.74 2891.44 46.29 2900.94 46.29 2880C46.29 2857.87 3.97 2865.21 0 2834.37C-19.18 2685.21 0 2677.18 0 2520C0 2340 0 2340 0 2160C0 1980 0 1980 0 1800C0 1620 0 1620 0 1440C0 1260 0 1260 0 1080C0 1041.43 -15.58 1002.86 0 1002.86C21.66 1002.86 44.86 1035.57 74.48 1080C190.58 1254.14 228.75 1246.17 291.43 1440C345.17 1606.17 294.06 1620.39 307.32 1800C320.63 1980.39 320.52 1981.58 344.57 2160C346.86 2177.01 351.07 2190.86 360 2190.86C369.81 2190.86 372.51 2176.38 382.04 2160C486.19 1980.95 556.4 1990.05 587.37 1800C615.06 1630.05 532.76 1621.94 499.35 1440C466.66 1261.94 501.7 1251.39 455.17 1080C432.02 994.72 418.02 994.98 360 926.67C265.15 814.98 256.84 821.05 149.43 720C76.84 651.71 34.86 671.97 0 588C-39.86 491.97 0 474 0 360C0 180 -90 90 0 0C90 -90 180 0 360 0C511.76 0 528.07 -30.96 663.53 0" stroke="rgba(183, 48, 209, 1)" stroke-width="2"></path><path d="M720 622.7C681.39 622.7 632.2 678.68 632.2 720C632.2 751.65 678.72 768.65 720 768.65C750.31 768.65 775.38 748.97 775.38 720C775.38 676 752.98 622.7 720 622.7" stroke="rgba(183, 48, 209, 1)" stroke-width="2"></path><path d="M1080 2640C1049.51 2640 1041.43 2765.64 1041.43 2880C1041.43 2907.24 1056.58 2923.2 1080 2923.2C1119.06 2923.2 1166.4 2918.89 1166.4 2880C1166.4 2777.29 1112 2640 1080 2640" stroke="rgba(255, 189, 24, 1)" stroke-width="2"></path><path d="M720 3836.57C680.77 3836.57 646.78 3902.56 646.78 3960C646.78 4002.17 681.64 4035.79 720 4035.79C762.33 4035.79 808.16 4003.22 808.16 3960C808.16 3903.61 761.46 3836.57 720 3836.57" stroke="rgba(183, 48, 209, 1)" stroke-width="2"></path><path d="M487.06 0C624.61 129.69 617.11 339.43 720 339.43C813.85 339.43 762.99 110.84 880.54 0C942.99 -58.88 980.27 0 1080 0C1260 0 1350 -90 1440 0C1530 90 1440 180 1440 360C1440 535.13 1445.56 537.73 1440 710.27C1439.76 717.73 1434.77 715.92 1428.39 720C1254.77 830.99 1241.55 815.69 1080 940.41C1008.39 995.69 1019.01 1008.57 962.07 1080C839.01 1234.36 826.76 1392 720 1392C625.04 1392 558.62 1226.78 558.62 1080C558.62 975.92 632.76 978.68 720 890.27C810.37 798.68 913.85 821.4 913.85 720C913.85 566 835.44 379.46 720 379.46C584.86 379.46 570 553.71 412.68 720C390 743.98 385.07 760 360 760C338.36 760 340.53 739.03 319.25 720C160.53 578.03 134.92 590.14 0 438C-24.71 410.14 0 399 0 360C0 180 -90 90 0 0C90 -90 180 0 360 0C423.53 0 444.61 -40.03 487.06 0" stroke="rgba(183, 48, 209, 1)" stroke-width="2"></path><path d="M0 1232C40.96 1232 107.77 1322.71 148.57 1440C206.55 1606.71 180.64 1619.29 197.56 1800C214.35 1979.29 173.1 1988.87 216 2160C254.32 2312.87 265.82 2325.44 360 2448C404.14 2505.44 425.81 2484.96 492.63 2520C605.81 2579.34 629.35 2552.67 720 2636.76C823.39 2732.67 791.88 2764.91 880.71 2880C971.88 2998.13 969.56 3003.92 1080 3103.2C1169.79 3183.92 1212.41 3145.09 1281.18 3240C1392.41 3393.49 1360.59 3420 1440 3600C1440 3600 1440 3600 1440 3600C1440 3780 1440 3780 1440 3960C1440 4037.15 1493.38 4101.22 1440 4114.29C1313.38 4145.3 1247.15 4105.7 1080 4048.16C1023.07 4028.56 1027.74 4010.65 991.84 3960C868.91 3786.57 819.07 3795.17 762.35 3600C714.45 3435.17 799.94 3407.67 782.61 3240C778.77 3202.84 749.07 3190.34 720 3190.34C695.95 3190.34 703.71 3221.8 676.36 3240C523.71 3341.54 531.07 3377.46 360 3429.82C192.89 3480.96 114.33 3507.29 0 3447C-65.67 3412.38 0 3343.5 0 3240C0 3136.5 -41.19 3117.81 0 3033C46.24 2937.81 174.86 2959.1 174.86 2880C174.86 2796.41 49.56 2809.65 0 2707.61C-37.87 2629.65 0 2613.81 0 2520C0 2340 0 2340 0 2160C0 1980 0 1980 0 1800C0 1620 0 1620 0 1440C0 1336 -33.33 1232 0 1232" stroke="rgba(255, 102, 24, 1)" stroke-width="2"></path><path d="M565.71 2160C565.71 2060.01 615.37 2011.49 720 1966.15C872.52 1900.06 915.66 1891.26 1080 1937.14C1262.81 1988.18 1246.91 2048.94 1414.29 2160C1426.91 2168.37 1438.96 2161.44 1440 2176C1451.81 2341.44 1440 2348 1440 2520C1440 2677.96 1492.87 2835.92 1440 2835.92C1373.79 2835.92 1320.39 2678.36 1201.85 2520C1140.39 2437.9 1167.2 2378.69 1080 2355C926.27 2313.24 865.79 2444.37 720 2389.09C608.64 2346.87 565.71 2271.48 565.71 2160" stroke="rgba(183, 48, 209, 1)" stroke-width="2"></path><path d="M198.37 3960C286.45 3886.13 282.99 3795 360 3795C430.92 3795 423.02 3881.13 494.24 3960C603.02 4080.47 606.41 4077.54 720 4193.68C782.45 4257.54 846.32 4283 846.32 4320C846.32 4346.16 783.16 4320 720 4320C540 4320 540 4320 360 4320C180 4320 111.13 4388.87 0 4320C-68.87 4277.32 -47.68 4183.42 0 4096.9C51.51 4003.42 106.45 4037.08 198.37 3960" stroke="rgba(255, 37, 24, 1)" stroke-width="2"></path><path d="M1080 164.57C1022.28 96.63 1002.16 57.64 1002.16 0C1002.16 -24.65 1041.08 0 1080 0C1217.14 0 1235.53 -37.11 1354.29 0C1415.53 19.14 1424.42 47.05 1440 112.5C1467.27 227.05 1440 236.25 1440 360C1440 413.51 1465.5 467.03 1440 467.03C1399.5 467.03 1373.05 414.65 1308 360C1193.05 263.42 1175.2 276.63 1080 164.57" stroke="rgba(255, 189, 24, 1)" stroke-width="2"></path><path d="M1052.31 720C1052.31 684.54 1060.39 645 1080 645C1103.26 645 1138.06 687.6 1138.06 720C1138.06 743.47 1105.68 756.73 1080 756.73C1062.81 756.73 1052.31 740.4 1052.31 720" stroke="rgba(255, 189, 24, 1)" stroke-width="2"></path><path d="M662.07 1080C662.07 1042.64 687.6 1011.89 720 1011.89C760.01 1011.89 806.9 1040.57 806.9 1080C806.9 1130.63 758.32 1192 720 1192C685.91 1192 662.07 1132.69 662.07 1080" stroke="rgba(255, 102, 24, 1)" stroke-width="2"></path><path d="M0 1432C1.57 1432 4.57 1435.23 5.71 1440C48.47 1619.23 67.11 1617.72 87.8 1800C107.97 1977.72 73.47 1981.1 87.43 2160C101.57 2341.1 174.59 2372.74 144 2520C130.88 2583.17 51.83 2580.85 0 2580.85C-20.17 2580.85 0 2550.43 0 2520C0 2340 0 2340 0 2160C0 1980 0 1980 0 1800C0 1620 0 1620 0 1440C0 1436 -1.28 1432 0 1432" stroke="rgba(183, 48, 209, 1)" stroke-width="2"></path><path d="M1008 2160C1008 2155.98 1045.02 2151.43 1080 2151.43C1087.45 2151.43 1092.86 2155.91 1092.86 2160C1092.86 2163.94 1087.24 2167.5 1080 2167.5C1044.81 2167.5 1008 2164.01 1008 2160" stroke="rgba(255, 189, 24, 1)" stroke-width="2"></path><path d="M1340.31 2520C1340.31 2449.01 1412.65 2376 1440 2376C1462.49 2376 1440 2448 1440 2520C1440 2586.12 1462.13 2652.24 1440 2652.24C1412.29 2652.24 1340.31 2587.13 1340.31 2520" stroke="rgba(255, 37, 24, 1)" stroke-width="2"></path><path d="M303.43 2880C351.72 2826.07 302.22 2743.45 360 2743.45C510.51 2743.45 710.28 2769.4 720 2880C732.1 3017.67 566.36 3065.45 403.64 3240C386.36 3258.54 384.61 3260.42 360 3266.18C182.79 3307.67 143.1 3344.91 0 3334.5C-36.9 3331.82 0 3287.25 0 3240C0 3192.75 -28.81 3179.68 0 3145.5C122.91 2999.68 171.72 3027.1 303.43 2880" stroke="rgba(255, 37, 24, 1)" stroke-width="2"></path><path d="M0 4223.66C146.43 4096.33 198.99 3983.02 360 4006.96C522.99 4031.19 648 4226.67 648 4320C648 4383.19 504 4320 360 4320C180 4320 142 4358 0 4320C-38 4309.83 -33.57 4252.85 0 4223.66" stroke="rgba(183, 48, 209, 1)" stroke-width="2"></path></g><defs><mask id="SvgjsMask1002"><rect width="1440" height="4260" fill="#ffffff"></rect></mask><linearGradient x1="-48.96%" y1="16.55%" x2="148.96%" y2="83.45%" gradientUnits="userSpaceOnUse" id="SvgjsLinearGradient1003"><stop stop-color="#0e2a47" offset="0"></stop><stop stop-color="rgba(158, 0, 0, 1)" offset="1"></stop></linearGradient></defs></svg>