<svg xmlns="http://www.w3.org/2000/svg" version="1.1" xmlns:xlink="http://www.w3.org/1999/xlink" xmlns:svgjs="http://svgjs.dev/svgjs" width="1440" height="560" preserveAspectRatio="none" viewBox="0 0 1440 560"><g mask="url(&quot;#SvgjsMask1016&quot;)" fill="none"><rect width="1440" height="560" x="0" y="0" fill="#0e2a47"></rect><path d="M 0,1 C 32,36.2 96,170.6 160,177 C 224,183.4 256,26.2 320,33 C 384,39.8 416,200.2 480,211 C 544,221.8 576,74.8 640,87 C 704,99.2 736,286.4 800,272 C 864,257.6 896,34 960,15 C 1024,-4 1056,179.8 1120,177 C 1184,174.2 1216,-3 1280,1 C 1344,5 1408,157.8 1440,197L1440 560L0 560z" fill="rgba(255, 241, 0, 1)"></path><path d="M 0,558 C 32,503.4 96,295.8 160,285 C 224,274.2 256,495.2 320,504 C 384,512.8 416,323.4 480,329 C 544,334.6 576,532.2 640,532 C 704,531.8 736,323.4 800,328 C 864,332.6 896,562.2 960,555 C 1024,547.8 1056,318.4 1120,292 C 1184,265.6 1216,416.2 1280,423 C 1344,429.8 1408,345.4 1440,326L1440 560L0 560z" fill="rgba(98, 91, 255, 1)"></path></g><defs><mask id="SvgjsMask1016"><rect width="1440" height="560" fill="#ffffff"></rect></mask></defs></svg>