<svg xmlns="http://www.w3.org/2000/svg" version="1.1" xmlns:xlink="http://www.w3.org/1999/xlink" xmlns:svgjs="http://svgjs.dev/svgjs" width="1440" height="560" preserveAspectRatio="none" viewBox="0 0 1440 560"><g mask="url(&quot;#SvgjsMask1268&quot;)" fill="none"><rect width="1440" height="560" x="0" y="0" fill="#0e2a47"></rect><rect width="240.76" height="240.76" clip-path="url(&quot;#SvgjsClipPath1269&quot;)" x="1051.51" y="42.23" fill="url(&quot;#SvgjsPattern1270&quot;)" transform="rotate(123.87, 1171.89, 162.61)"></rect><path d="M920.97 521.38 L897.2800000000001 439.03L961.6739645589083 427.65603544109166z" fill="#d3b714"></path><path d="M1201.32 446.72999999999996 L1117.54 557.24L1210.0758588398073 552.6308588398074z" stroke="rgba(254, 254, 255, 1)" stroke-width="2.73" stroke-dasharray="4, 4"></path><circle r="46.666666666666664" cx="5.14" cy="521.68" stroke="rgba(165, 146, 255, 1)" stroke-width="2.17" stroke-dasharray="2, 2"></circle><rect width="264" height="264" clip-path="url(&quot;#SvgjsClipPath1271&quot;)" x="771.99" y="53.15" fill="url(&quot;#SvgjsPattern1272&quot;)" transform="rotate(31.28, 903.99, 185.15)"></rect><path d="M500.2 513.05 L509.29 406.46000000000004L561.4331138754037 516.4431138754037z" fill="rgba(165, 146, 255, 1)"></path><rect width="60" height="60" clip-path="url(&quot;#SvgjsClipPath1273&quot;)" x="56.25" y="438.52" fill="url(&quot;#SvgjsPattern1274&quot;)" transform="rotate(288.23, 86.25, 468.52)"></rect><rect width="93.80000000000001" height="93.80000000000001" clip-path="url(&quot;#SvgjsClipPath1275&quot;)" x="1273.68" y="316.47" fill="url(&quot;#SvgjsPattern1276&quot;)" transform="rotate(308.47, 1320.58, 363.37)"></rect><path d="M848.5 489.14L844.58 476.95 855.61 470.45 851.69 458.26 862.73 451.76 858.81 439.57 869.84 433.07M855.97 491.99L852.06 479.8 863.09 473.3 859.17 461.11 870.21 454.61 866.29 442.42 877.32 435.92" stroke="rgba(165, 146, 255, 1)" stroke-width="2.25" stroke-dasharray="4, 4"></path><path d="M1189.99 40.31L1178.19 45.3 1170.73 34.89 1158.94 39.88 1151.48 29.47 1139.69 34.46 1132.23 24.05M1192.15 32.6L1180.36 37.6 1172.9 27.19 1161.11 32.18 1153.65 21.77 1141.86 26.76 1134.4 16.35" stroke="rgba(109, 110, 213, 1)" stroke-width="1.24" stroke-dasharray="4, 4"></path><circle r="46.666666666666664" cx="240.33" cy="125.78" stroke="rgba(165, 146, 255, 1)" stroke-width="2.58" stroke-dasharray="3, 3"></circle><rect width="123.4" height="123.4" clip-path="url(&quot;#SvgjsClipPath1277&quot;)" x="734.08" y="437.28" fill="url(&quot;#SvgjsPattern1278&quot;)" transform="rotate(309.21, 795.78, 498.98)"></rect></g><defs><mask id="SvgjsMask1268"><rect width="1440" height="560" fill="#ffffff"></rect></mask><pattern x="0" y="0" width="9.26" height="9.26" patternUnits="userSpaceOnUse" id="SvgjsPattern1270"><path d="M4.63 1L4.63 8.26M1 4.63L8.26 4.63" stroke="rgba(67, 70, 87, 1)" fill="none" stroke-width="3.43"></path></pattern><clipPath id="SvgjsClipPath1269"><circle r="60.19" cx="1171.89" cy="162.61"></circle></clipPath><pattern x="0" y="0" width="264" height="6" patternUnits="userSpaceOnUse" id="SvgjsPattern1272"><rect width="264" height="3" x="0" y="0" fill="#d3b714"></rect><rect width="264" height="3" x="0" y="3" fill="rgba(0, 0, 0, 0)"></rect></pattern><clipPath id="SvgjsClipPath1271"><circle r="66" cx="903.99" cy="185.15"></circle></clipPath><pattern x="0" y="0" width="6" height="6" patternUnits="userSpaceOnUse" id="SvgjsPattern1274"><path d="M0 6L3 0L6 6" stroke="rgba(254, 254, 255, 1)" fill="none"></path></pattern><clipPath id="SvgjsClipPath1273"><circle r="15" cx="86.25" cy="468.52"></circle></clipPath><pattern x="0" y="0" width="9.38" height="9.38" patternUnits="userSpaceOnUse" id="SvgjsPattern1276"><path d="M0 9.38L4.69 0L9.38 9.38" stroke="rgba(165, 146, 255, 1)" fill="none"></path></pattern><clipPath id="SvgjsClipPath1275"><circle r="23.450000000000003" cx="1320.58" cy="363.37"></circle></clipPath><pattern x="0" y="0" width="12.34" height="12.34" patternUnits="userSpaceOnUse" id="SvgjsPattern1278"><path d="M6.17 1L6.17 11.34M1 6.17L11.34 6.17" stroke="rgba(254, 254, 255, 1)" fill="none" stroke-width="4.1"></path></pattern><clipPath id="SvgjsClipPath1277"><circle r="30.85" cx="795.78" cy="498.98"></circle></clipPath></defs></svg>